<svg width="63" height="28" viewBox="0 0 63 28" fill="none" xmlns="http://www.w3.org/2000/svg">
<path fill-rule="evenodd" clip-rule="evenodd" d="M0 8.75277V13.1304H12.8498C14.3433 13.1304 16.2515 11.7541 16.2515 9.47741C16.2515 8.56175 16.603 7.96445 15.523 6.75326L13.8794 4.81259C12.9376 3.93707 13.9919 3.93707 14.783 3.93707H20.2082V13.1304H24.5108V3.93707H30.3098V0H11.5319C9.24725 0 8.13011 2.18603 8.19296 3.3242C8.25616 4.46238 8.46626 5.89435 10.3647 7.61459C12.0965 9.18326 9.50735 8.75277 9.24725 8.75277H0V8.75277ZM39.8237 0H32.8826L28.9916 13.1307H33.3219L34.0244 11.2921H38.593L39.2712 13.1307H43.513L39.8237 0V0ZM34.9912 8.1399L36.4848 3.3242L37.8908 8.1399H34.9912V8.1399ZM57.2198 8.75277C55.5505 8.75277 55.5505 8.1399 55.5505 8.1399C56.9809 8.1399 58.2491 6.06323 58.2491 3.93707C58.2491 1.81091 56.1655 0 54.4955 0H45.1573V13.1307H49.9023V8.75312C49.9023 8.75312 51.9227 11.117 52.977 12.0801C54.0316 13.0432 54.1191 13.1307 55.5502 13.1307H62.9986V8.75312C62.9993 8.75277 58.8891 8.75277 57.2198 8.75277V8.75277ZM52.9145 5.68845H49.903V3.3242H52.9145C54.2952 3.3242 54.5341 5.68845 52.9145 5.68845ZM0 14.7938H4.85438L6.08439 19.1721L7.22653 14.7938H12.3226L13.6405 19.1721L14.9587 14.7938H19.1758L15.3098 27.9277H11.444L9.75009 21.7108L7.84153 27.9277H3.88795L0 14.7938ZM29.1384 14.8696H22.1974L18.3066 28H22.6367L23.3395 26.1618H27.9084L28.5866 28H32.8288L29.1384 14.8696ZM24.3063 23.0092L25.7999 18.1935L27.2056 23.0092H24.3063ZM57.3073 18.7344C56.5173 18.7344 55.6557 18.8264 56.5979 19.7016L58.2418 21.6426C59.3215 22.8538 59.3041 23.3587 59.3041 24.2751C59.3041 26.5514 57.0441 27.9277 55.5505 27.9277L45.1688 27.9972C43.7384 27.9972 43.6509 27.91 42.5963 26.947C41.5423 25.9839 39.5212 23.6196 39.5212 23.6196V27.9972H34.7769V14.8669H44.1152C45.7845 14.8669 47.8687 16.6781 47.8687 18.8039C47.8687 20.9304 46.6005 23.0068 45.1695 23.0068C45.1695 23.0068 45.7987 23.6373 46.853 23.6373C47.9076 23.6373 51.9671 23.6414 51.9671 23.6414C52.2269 23.6414 54.8157 24.0719 53.0843 22.5033C51.1858 20.783 50.9757 19.3517 50.9125 18.2136C50.8493 17.0754 51.8369 14.7942 54.1205 14.7942H63V18.7347H57.3073V18.7344V18.7344ZM42.533 20.555H39.5209V18.1907H42.533C43.9141 18.1907 44.1527 20.555 42.533 20.555Z" fill="white"/>
</svg>
